<svg xmlns="http://www.w3.org/2000/svg" width="1200" height="320" viewBox="0 0 1200 320" role="img" aria-label="Mohit Dutta, AI Engineer">
  <defs>
    <linearGradient id="wave" gradientUnits="userSpaceOnUse" x1="690" y1="0" x2="1160" y2="0">
      <stop offset="0" stop-color="#F2A93B"/><stop offset="0.55" stop-color="#E0577A"/><stop offset="1" stop-color="#5CC8E0"/>
    </linearGradient>
    <style>
      .f{font-family:'Segoe UI',Inter,'Helvetica Neue',Arial,sans-serif}
      .b{transform-box:fill-box;transform-origin:center;animation:talk 1.4s ease-in-out infinite}
      @keyframes talk{0%,100%{transform:scaleY(.35)}50%{transform:scaleY(1)}}
      @media (prefers-reduced-motion:reduce){.b{animation:none}}
    </style>
  </defs>
  <rect width="1200" height="320" rx="22" fill="#0E1726"/>
  <rect x="0.5" y="0.5" width="1199" height="319" rx="22" fill="none" stroke="#24344F"/>
  <text x="64" y="118" class="f" font-size="66" font-weight="700" fill="#E8EDF5" letter-spacing="-1">Mohit Dutta</text>
  <text x="66" y="162" class="f" font-size="24" fill="#F2A93B">AI Engineer</text>
  <text x="66" y="206" class="f" font-size="19" fill="#B7C3D7">I build voice agents, vision systems and automations</text>
  <text x="66" y="233" class="f" font-size="19" fill="#B7C3D7">that keep working after the demo ends.</text>
  <text x="66" y="276" class="f" font-size="15" fill="#8A99B3">Ludhiana, Punjab   |   GenAI, RAG, Voice AI, Computer Vision, n8n</text>
  <g id="bars" fill="url(#wave)">
    <rect class="b" x="690" y="135.0" width="8" height="30.0" rx="4" style="animation-delay:-0.00s"/>
    <rect class="b" x="704" y="107.1" width="8" height="85.8" rx="4" style="animation-delay:-0.07s"/>
    <rect class="b" x="718" y="86.2" width="8" height="127.5" rx="4" style="animation-delay:-0.14s"/>
    <rect class="b" x="732" y="80.2" width="8" height="139.6" rx="4" style="animation-delay:-0.21s"/>
    <rect class="b" x="746" y="91.3" width="8" height="117.5" rx="4" style="animation-delay:-0.28s"/>
    <rect class="b" x="760" y="115.1" width="8" height="69.9" rx="4" style="animation-delay:-0.35s"/>
    <rect class="b" x="774" y="127.2" width="8" height="45.6" rx="4" style="animation-delay:-0.42s"/>
    <rect class="b" x="788" y="105.3" width="8" height="89.4" rx="4" style="animation-delay:-0.49s"/>
    <rect class="b" x="802" y="95.7" width="8" height="108.6" rx="4" style="animation-delay:-0.56s"/>
    <rect class="b" x="816" y="99.6" width="8" height="100.8" rx="4" style="animation-delay:-0.63s"/>
    <rect class="b" x="830" y="112.9" width="8" height="74.1" rx="4" style="animation-delay:-0.70s"/>
    <rect class="b" x="844" y="129.0" width="8" height="42.1" rx="4" style="animation-delay:-0.77s"/>
    <rect class="b" x="858" y="128.4" width="8" height="43.2" rx="4" style="animation-delay:-0.84s"/>
    <rect class="b" x="872" y="122.4" width="8" height="55.2" rx="4" style="animation-delay:-0.91s"/>
    <rect class="b" x="886" y="122.6" width="8" height="54.7" rx="4" style="animation-delay:-0.98s"/>
    <rect class="b" x="900" y="126.4" width="8" height="47.2" rx="4" style="animation-delay:-1.05s"/>
    <rect class="b" x="914" y="130.9" width="8" height="38.2" rx="4" style="animation-delay:-1.12s"/>
    <rect class="b" x="928" y="134.6" width="8" height="30.9" rx="4" style="animation-delay:-1.19s"/>
    <rect class="b" x="942" y="132.5" width="8" height="35.1" rx="4" style="animation-delay:-1.26s"/>
    <rect class="b" x="956" y="129.5" width="8" height="41.0" rx="4" style="animation-delay:-1.33s"/>
    <rect class="b" x="970" y="126.6" width="8" height="46.8" rx="4" style="animation-delay:-0.00s"/>
    <rect class="b" x="984" y="125.4" width="8" height="49.2" rx="4" style="animation-delay:-0.07s"/>
    <rect class="b" x="998" y="128.2" width="8" height="43.5" rx="4" style="animation-delay:-0.14s"/>
    <rect class="b" x="1012" y="133.4" width="8" height="33.2" rx="4" style="animation-delay:-0.21s"/>
    <rect class="b" x="1026" y="120.6" width="8" height="58.8" rx="4" style="animation-delay:-0.28s"/>
    <rect class="b" x="1040" y="107.7" width="8" height="84.5" rx="4" style="animation-delay:-0.35s"/>
    <rect class="b" x="1054" y="100.9" width="8" height="98.3" rx="4" style="animation-delay:-0.42s"/>
    <rect class="b" x="1068" y="105.1" width="8" height="89.9" rx="4" style="animation-delay:-0.49s"/>
    <rect class="b" x="1082" y="121.6" width="8" height="56.8" rx="4" style="animation-delay:-0.56s"/>
    <rect class="b" x="1096" y="123.5" width="8" height="53.1" rx="4" style="animation-delay:-0.63s"/>
    <rect class="b" x="1110" y="98.5" width="8" height="103.0" rx="4" style="animation-delay:-0.70s"/>
    <rect class="b" x="1124" y="82.8" width="8" height="134.3" rx="4" style="animation-delay:-0.77s"/>
    <rect class="b" x="1138" y="83.0" width="8" height="134.0" rx="4" style="animation-delay:-0.84s"/>
    <rect class="b" x="1152" y="99.6" width="8" height="100.7" rx="4" style="animation-delay:-0.91s"/>
  </g>
  <text x="925" y="262" class="f" font-size="16" fill="#8A99B3" text-anchor="middle">ਸਤ ਸ੍ਰੀ ਅਕਾਲ! How can I help you today?</text>
</svg>
